<svg width="176" height="34" viewBox="0 0 176 34" fill="none" xmlns="http://www.w3.org/2000/svg">
<path d="M0 1.4906H13.0389C19.9929 1.4906 24.6137 5.65389 24.6137 12.1504C24.6137 18.647 19.9929 22.7645 13.0389 22.7645H6.86256V33.5159H0V1.4906ZM6.86256 7.2094V17.0457H12.3984C15.6009 17.0457 17.6597 15.17 17.6597 12.1504C17.6597 9.13092 15.6009 7.2094 12.3984 7.2094H6.86256Z" fill="white"/>
<path d="M26.032 21.7581C26.032 14.5295 30.9273 9.72571 38.4303 9.72571C45.9334 9.72571 50.8287 14.5295 50.8287 21.7581C50.8287 28.9866 45.9334 33.7904 38.4303 33.7904C30.9273 33.7904 26.032 28.9866 26.032 21.7581ZM44.2864 21.7581C44.2864 17.7778 42.0446 14.987 38.4303 14.987C34.8161 14.987 32.62 17.7778 32.62 21.7581C32.62 25.7384 34.8161 28.5291 38.4303 28.5291C42.0446 28.5291 44.2864 25.7384 44.2864 21.7581Z" fill="white"/>
<path d="M54.3972 1.4906H60.848V33.5159H54.3972V1.4906Z" fill="white"/>
<path d="M88.4812 28.0716V33.5159H85.1872C81.8474 33.5159 80.7952 31.9147 80.8409 29.6729C79.1939 32.2807 76.8149 33.7904 73.1548 33.7904C68.0765 33.7904 64.4165 31.3657 64.4165 26.8821C64.4165 21.8953 68.168 19.0588 75.2136 19.0588H79.8801V17.915C79.8801 15.8105 78.3704 14.438 75.6711 14.438C73.1548 14.438 71.4621 15.5818 71.1876 17.3203H64.9655C65.423 12.7452 69.6321 9.72571 75.8541 9.72571C82.4422 9.72571 86.2394 12.6537 86.2394 18.281V26.6076C86.2394 27.8429 86.7427 28.0716 87.7492 28.0716H88.4812ZM79.8801 23.3593H75.1679C72.4686 23.3593 70.9131 24.4573 70.9131 26.4246C70.9131 28.0716 72.2398 29.1239 74.3901 29.1239C77.7756 29.1239 79.8344 27.0194 79.8801 23.8168V23.3593Z" fill="white"/>
<path d="M105.317 10.0002V15.8562H102.755C98.9124 15.8562 97.4484 18.4183 97.4484 21.9868V33.5159H90.9976V10.0002H96.8536L97.4484 13.523C98.7294 11.4184 100.559 10.0002 104.219 10.0002H105.317Z" fill="white"/>
<path d="M107.695 3.86963C107.695 1.76511 109.342 0.209595 111.446 0.209595C113.551 0.209595 115.198 1.76511 115.198 3.86963C115.198 5.97415 113.551 7.48391 111.446 7.48391C109.342 7.48391 107.695 5.9284 107.695 3.86963ZM108.198 10.0002H114.694V33.5159H108.198V10.0002Z" fill="white"/>
<path d="M124.165 25.6926C124.393 27.7513 126.178 29.1696 129.335 29.1696C132.034 29.1696 133.681 28.3003 133.681 26.6533C133.681 24.7318 132.08 24.5946 128.282 24.0913C122.792 23.4508 118.537 22.2155 118.537 17.366C118.537 12.5164 122.609 9.63417 128.648 9.67992C134.962 9.67992 139.308 12.4707 139.628 17.2745H133.452C133.269 15.3987 131.485 14.255 128.877 14.255C126.269 14.255 124.714 15.17 124.714 16.6797C124.714 18.464 126.727 18.647 130.112 19.0588C135.511 19.6078 139.994 20.843 139.994 26.1501C139.994 30.8166 135.602 33.7904 129.289 33.7904C122.975 33.7904 118.309 30.7251 118.034 25.6926H124.165Z" fill="white"/>
<path d="M142.465 21.8038C142.465 14.4838 147.269 9.72571 154.543 9.72571C161.817 9.72571 166.347 14.1177 166.438 21.0261C166.438 21.7123 166.392 22.4901 166.255 23.2221H149.19V23.5423C149.327 26.8821 151.478 28.8951 154.726 28.8951C157.334 28.8951 159.164 27.7514 159.713 25.5553H166.072C165.34 30.1304 161.268 33.7904 155 33.7904C147.177 33.7904 142.465 29.0781 142.465 21.8038ZM159.941 19.013C159.484 16.1308 157.517 14.5295 154.589 14.5295C151.661 14.5295 149.693 16.2223 149.327 19.013H159.941Z" fill="white"/>
<path d="M172.111 26.1501C174.307 26.1501 176 27.7513 176 29.9931C176 32.2349 174.307 33.7904 172.111 33.7904C169.915 33.7904 168.222 32.1891 168.222 29.9931C168.222 27.7971 169.869 26.1501 172.111 26.1501Z" fill="white"/>
</svg>
